<svg width="25" height="24" viewBox="0 0 25 24" fill="none" xmlns="http://www.w3.org/2000/svg">
<path d="M12.5 2.25V21.75" stroke="black" stroke-width="2" stroke-linecap="round" stroke-linejoin="round"/>
<path d="M17.75 8.25C17.75 7.75754 17.653 7.26991 17.4645 6.81494C17.2761 6.35997 16.9999 5.94657 16.6517 5.59835C16.3034 5.25013 15.89 4.97391 15.4351 4.78545C14.9801 4.597 14.4925 4.5 14 4.5H10.625C9.63044 4.5 8.67661 4.89509 7.97335 5.59835C7.27009 6.30161 6.875 7.25544 6.875 8.25C6.875 9.24456 7.27009 10.1984 7.97335 10.9017C8.67661 11.6049 9.63044 12 10.625 12H14.75C15.7446 12 16.6984 12.3951 17.4017 13.0983C18.1049 13.8016 18.5 14.7554 18.5 15.75C18.5 16.7446 18.1049 17.6984 17.4017 18.4017C16.6984 19.1049 15.7446 19.5 14.75 19.5H10.25C9.25544 19.5 8.30161 19.1049 7.59835 18.4017C6.89509 17.6984 6.5 16.7446 6.5 15.75" stroke="black" stroke-width="2" stroke-linecap="round" stroke-linejoin="round"/>
</svg>
